<svg id="SVGRoot" width="24px" height="24px" version="1.1" viewBox="0 0 24 24" xmlns="http://www.w3.org/2000/svg">
 <path d="m22 0s-3 0-3 4c0 0.94281 1.0572 2 2 2 1 0 2-1 2-2 0-2-1.4922-2-1.5-3-0.0029-0.37267 0.5-1 0.5-1zm-19 2c-1 0-1 1-1 1v5h9v-6h-8zm9 0v6h6.1738c0.26089-0.74 0.78004-1.2733 1.2852-1.5586-0.17654-0.12479-0.36903-0.23036-0.51953-0.38086-0.52752-0.52753-0.93945-1.2154-0.93945-2.0605 0-0.76516 0.11394-1.425 0.29688-2h-6.2969zm9 5s-2 0-2 2v15s4-10.227 4-15c0-2-2-2-2-2zm-19 2v7h5v-7h-5zm6 0v7h3 1 3v-7h-7zm8 0v7h2v-7h-2zm-14 8v4s0 1 1 1h8v-5h-9zm10 0v5h6v-5h-6z" style="fill-rule:evenodd;paint-order:stroke fill markers"/>
</svg>
